<svg xmlns="http://www.w3.org/2000/svg" width="49.975" height="49.975" viewBox="0 0 49.975 49.975">
  <path id="price" d="M49.975,11.94,38.035,0,33.482,4.553,30.489,1.56,23.182,8.868l5.687,5.687L14.554,28.868,8.868,23.182,1.56,30.489l2.993,2.993L0,38.035l11.94,11.94,4.553-4.553,2.993,2.993,7.308-7.308L21.106,35.42,35.42,21.106l5.687,5.687,7.308-7.308-2.993-2.993ZM38.035,4.161l7.779,7.779-2.472,2.472L35.563,6.633ZM11.94,45.814,4.161,38.035l2.472-2.472,7.779,7.779Zm7.546-1.56L5.721,30.489l3.146-3.146L22.632,41.107Zm-.46-10.914-2.391-2.391L30.949,16.635l2.391,2.391ZM41.107,22.632,27.343,8.868l3.146-3.146L44.254,19.485Z" fill="#fff"/>
</svg>
