<svg height="144pt" preserveAspectRatio="xMidYMid meet" viewBox="0 0 144 144" width="144pt" xmlns="http://www.w3.org/2000/svg"><path d="m1248 1425c-2-2-19-7-37-10-19-3-42-10-52-16-11-5-19-7-19-5 0 3-21-4-47-15-119-52-108-49-150-33-18 7-33 11-33 8s-8 0-17 5c-68 36-277 34-398-4-5-2-21-6-35-11-14-4-61-26-105-48-198-102-325-231-316-323 1-18 78-64 114-70 32-5 62-17 87-33 17-12 68-32 90-36 8-1 35-6 60-10s50-8 55-10c50-11 194-27 252-28 24-1 44-3 44-6 1-3 3-14 4-25 12-98 39-167 78-204 34-31 45-20 86 83 46 115 39 109 95 81 55-28 129-82 144-106 8-12 6-30-6-62-16-45-16-47 3-61 13-10 24-11 32-5 15 13 30-17 26-51-2-14-4-31-5-38-1-8-14-27-30-44-21-23-34-29-51-24-12 4-29 8-38 11-9 2-36 12-60 23-47 21-118 46-134 48-5 0-29 6-51 12-105 30-226 16-194-23 7-8 22-17 33-21 33-9 171-75 177-84 3-4 16-13 29-20 36-19 108-88 132-126 11-19 22-49 23-66 3-39 22-43 51-14 27 27 40 54 60 123 15 51 65 131 65 104 0-22 20-10 27 17 4 15 26 58 48 95 36 61 42 67 66 62 39-9 49 11 34 70-7 28-12 93-11 145s-2 103-6 113c-11 21 1 22 29 2 15-10 24-12 28-4 6 9-13 37-56 79-8 8-21 31-29 50-7 19-30 67-52 106-21 39-38 82-38 94 0 38 57 143 109 203 75 86 67 105-41 105-37 0-68-2-70-3z" transform="matrix(.1 0 0 -.1 0 144)"/></svg>